<?xml version="1.0" standalone="no"?>
<!DOCTYPE svg PUBLIC "-//W3C//DTD SVG 20010904//EN"
 "http://www.w3.org/TR/2001/REC-SVG-20010904/DTD/svg10.dtd">
<svg version="1.0" xmlns="http://www.w3.org/2000/svg"
 width="332.000000pt" height="332.000000pt" viewBox="0 0 332.000000 332.000000"
 preserveAspectRatio="xMidYMid meet">
<metadata>
Created by potrace 1.11, written by Peter Selinger 2001-2013
</metadata>
<g transform="translate(0.000000,332.000000) scale(0.100000,-0.100000)"
fill="#000000" stroke="none">
<path d="M300 3310 c0 -9 35 -148 46 -179 8 -25 42 16 36 44 -5 28 0 30 31 13
19 -9 20 -9 11 3 -19 24 -23 58 -8 70 20 16 17 36 -5 49 -25 13 -111 13 -111
0z"/>
<path d="M820 3310 c0 -5 11 -10 25 -10 14 0 25 5 25 10 0 6 -11 10 -25 10
-14 0 -25 -4 -25 -10z"/>
<path d="M1020 3305 c-7 -8 -9 -23 -5 -36 7 -20 5 -21 -21 -15 -16 4 -37 15
-46 23 -16 14 -18 14 -24 0 -13 -34 1 -62 39 -80 32 -15 36 -21 31 -42 -6 -25
9 -55 27 -55 5 0 9 9 9 19 0 40 94 44 130 6 l23 -25 -40 0 c-26 0 -46 -6 -56
-18 -19 -21 -22 -57 -7 -67 8 -5 7 -11 -1 -21 -7 -9 -9 -18 -3 -24 5 -5 92
-14 194 -20 306 -18 470 -32 476 -41 3 -5 -6 -13 -20 -19 -21 -7 -26 -16 -26
-42 -1 -18 -7 -44 -15 -58 -18 -31 -19 -50 -2 -50 6 0 20 20 30 45 23 55 85
112 131 121 20 3 57 3 84 -1 65 -10 143 -87 166 -165 26 -87 32 -83 -102 -75
l-119 7 -13 -32 c-18 -44 -6 -55 140 -123 19 -9 47 -21 63 -26 36 -14 35 -41
-4 -86 -40 -45 -70 -61 -134 -70 -44 -7 -47 -9 -25 -17 65 -24 174 37 225 127
10 16 16 17 63 5 46 -10 56 -10 78 4 13 9 27 30 31 46 3 17 10 30 15 30 5 0 7
4 4 8 -3 5 18 31 45 58 28 27 70 74 92 104 50 66 56 55 32 -55 -12 -52 -22
-75 -32 -75 -9 0 -12 -6 -8 -19 3 -10 -1 -24 -10 -31 -19 -16 -10 -30 21 -30
14 0 27 -7 31 -17 3 -10 15 -28 27 -41 17 -19 18 -26 8 -42 -9 -15 -9 -22 3
-34 19 -19 19 -40 1 -33 -8 3 -17 1 -20 -6 -2 -7 -5 -4 -5 6 -1 9 -6 17 -12
17 -7 0 -9 -9 -6 -21 4 -15 2 -19 -9 -15 -11 4 -12 2 -5 -13 6 -10 17 -21 26
-25 8 -3 15 -13 15 -22 0 -14 -8 -16 -45 -12 -25 3 -47 2 -50 -2 -7 -11 -48 0
-61 16 -6 8 -22 15 -35 16 -18 2 -25 -2 -27 -19 -2 -15 -13 -25 -30 -30 -24
-6 -22 -7 23 -20 28 -8 59 -18 70 -23 11 -5 37 -16 58 -24 20 -8 37 -19 37
-24 0 -6 11 -13 25 -16 14 -4 23 -11 20 -16 -7 -11 35 -31 47 -23 4 2 5 -3 2
-11 -3 -9 -2 -16 3 -16 19 0 93 -74 93 -94 0 -12 13 -40 29 -64 18 -26 32 -63
36 -95 4 -28 11 -60 16 -69 6 -10 5 -19 -1 -23 -6 -3 4 -18 21 -32 32 -28 73
-108 63 -124 -9 -15 55 -95 104 -130 26 -19 57 -46 70 -61 13 -15 33 -30 45
-34 32 -10 114 -82 138 -121 11 -18 26 -33 34 -33 7 0 36 -22 64 -50 28 -27
54 -50 56 -50 3 0 5 302 5 671 l0 672 -117 -8 c-225 -16 -217 -18 -207 39 4
22 7 46 6 51 -1 13 -28 124 -37 153 -7 21 -5 22 51 22 33 0 76 3 97 6 35 6 37
5 37 -19 0 -16 -11 -37 -27 -52 l-28 -25 25 0 c38 0 48 11 52 55 3 34 7 41 33
49 17 6 31 11 33 12 6 3 -40 104 -47 104 -3 0 -12 -4 -20 -9 -9 -6 -10 -11 -2
-15 29 -18 -11 -26 -130 -26 -103 0 -129 3 -129 14 0 7 -9 20 -19 27 -13 10
-20 31 -24 72 -5 55 -4 58 22 72 16 8 31 21 34 30 5 12 30 15 151 15 97 0 147
-4 152 -11 5 -8 13 -4 24 11 l18 23 7 -50 c3 -27 15 -63 26 -79 l19 -29 0 243
0 242 -205 0 -205 0 0 -33 c0 -18 -7 -57 -16 -86 -15 -52 -16 -53 -47 -47 -18
3 -62 8 -99 12 l-68 7 0 74 0 74 -32 -3 c-30 -3 -34 -7 -43 -50 -12 -56 -15
-59 -65 -74 -31 -9 -42 -9 -50 1 -14 17 -2 25 36 25 26 0 36 7 53 34 31 50 28
66 -15 66 -31 0 -35 -3 -29 -20 8 -24 -10 -60 -30 -60 -17 0 -35 30 -35 59 0
18 -6 20 -60 19 l-60 -1 6 -32 c6 -35 -13 -59 -39 -49 -21 8 -32 43 -18 57 6
6 11 15 11 19 0 4 -287 8 -639 8 -546 0 -640 -2 -651 -15z m26 -142 c-10 -10
-19 5 -10 18 6 11 8 11 12 0 2 -7 1 -15 -2 -18z m1372 -1 c7 -51 -62 -76 -74
-27 -10 40 2 57 38 53 26 -2 34 -8 36 -26z m145 -45 c-3 -5 -10 -4 -15 1 -6 6
-7 16 -3 22 6 9 9 9 16 -1 4 -7 5 -17 2 -22z m197 -12 c0 -8 -6 -15 -14 -15
-17 0 -28 14 -19 24 12 12 33 6 33 -9z m-1357 -25 c30 0 44 -7 68 -32 16 -18
29 -36 29 -39 0 -4 -46 -9 -102 -11 -116 -5 -146 6 -115 40 9 10 17 25 17 33
0 28 21 39 44 24 11 -8 38 -15 59 -15z m1204 -4 c-6 -17 -51 -13 -55 5 -2 12
4 15 28 11 17 -2 29 -9 27 -16z m-810 -18 c6 -5 13 -19 15 -31 3 -20 8 -22 51
-19 26 2 53 -1 60 -6 7 -6 32 -13 57 -16 25 -2 47 -5 50 -5 2 -1 -1 -6 -8 -13
-12 -12 -91 -13 -147 -2 -16 3 -73 8 -125 11 -52 2 -99 8 -104 13 -7 7 27 65
49 83 12 9 85 -2 102 -15z m742 -30 c7 -17 3 -34 -15 -67 -30 -55 -30 -64 1
-26 20 24 25 26 30 13 13 -34 -69 -174 -161 -275 -75 -84 -103 -96 -140 -62
-30 28 -28 59 4 75 23 11 22 12 -16 16 l-40 3 5 -32 c8 -51 -13 -39 -26 14
-15 59 -32 92 -65 124 -21 22 -25 32 -20 58 7 33 43 57 69 47 6 -2 31 0 56 4
24 4 69 10 99 14 99 10 119 17 155 57 19 22 35 44 35 49 0 19 21 10 29 -12z
m-246 -69 c-4 -4 -39 -5 -78 -1 -86 9 -93 28 -20 52 l50 16 28 -29 c16 -16 25
-33 20 -38z m-208 1 c3 -5 -1 -10 -9 -10 -9 0 -16 5 -16 10 0 6 4 10 9 10 6 0
13 -4 16 -10z m691 -45 c14 -30 23 -59 19 -65 -9 -15 -45 -12 -45 4 0 7 -13
16 -30 20 -32 6 -41 32 -14 43 8 3 20 16 25 29 4 13 11 24 14 24 3 0 17 -25
31 -55z m-202 -67 c5 -22 1 -30 -24 -48 -28 -20 -30 -20 -30 -3 0 18 38 89 44
82 2 -2 6 -16 10 -31z m202 -53 c18 -15 16 -15 -26 -9 -57 8 -76 24 -29 24 19
0 44 -7 55 -15z m-168 -116 c8 -12 19 -18 28 -15 21 8 43 -3 60 -33 10 -18 13
-20 10 -6 -8 31 8 49 38 41 41 -10 33 -74 -9 -76 -93 -3 -104 -8 -75 -35 11
-10 20 -24 20 -31 0 -18 41 -45 54 -35 14 10 202 9 212 -2 11 -11 8 -77 -4
-89 -6 -6 -69 -10 -143 -10 -137 0 -184 -8 -176 -31 4 -12 9 -13 52 -16 15 -1
16 -4 7 -13 -34 -34 11 -78 84 -81 45 -2 56 -10 28 -21 -70 -27 -199 49 -240
140 -15 36 -12 150 5 167 7 7 4 18 -9 34 -15 20 -17 30 -8 61 9 35 34 72 47
72 3 0 12 -9 19 -21z m267 11 c16 -6 33 -26 45 -52 25 -54 26 -76 5 -58 -19
16 -34 5 -17 -12 7 -7 12 -22 12 -35 0 -19 -5 -23 -34 -23 -18 0 -48 3 -65 6
-27 6 -32 11 -29 33 2 20 10 27 32 31 26 5 27 6 13 19 -20 16 -22 53 -5 81 7
11 14 20 15 20 1 0 13 -4 28 -10z m-985 -80 c0 -5 -5 -10 -11 -10 -5 0 -7 5
-4 10 3 6 8 10 11 10 2 0 4 -4 4 -10z m196 -57 c-10 -10 -19 5 -10 18 6 11 8
11 12 0 2 -7 1 -15 -2 -18z m652 -1 c2 -7 -3 -12 -12 -12 -9 0 -16 7 -16 16 0
17 22 14 28 -4z m-533 -22 c3 -5 2 -10 -4 -10 -5 0 -13 5 -16 10 -3 6 -2 10 4
10 5 0 13 -4 16 -10z m361 -297 c-11 -11 -19 6 -11 24 8 17 8 17 12 0 3 -10 2
-21 -1 -24z m-66 -63 c0 -5 -4 -10 -10 -10 -5 0 -10 5 -10 10 0 6 5 10 10 10
6 0 10 -4 10 -10z m-24 -11 c3 -6 2 -15 -4 -21 -7 -7 -14 -3 -21 11 -10 17 -9
21 3 21 8 0 18 -5 22 -11z m34 -34 c14 -16 10 -18 -14 -9 -9 3 -16 10 -16 15
0 14 16 11 30 -6z m32 -37 c-9 -9 -12 -7 -12 12 0 19 3 21 12 12 9 -9 9 -15 0
-24z"/>
<path d="M2394 2768 l-19 -23 23 19 c21 18 27 26 19 26 -2 0 -12 -10 -23 -22z"/>
<path d="M726 3212 c-3 -6 9 -22 26 -37 61 -51 56 -75 -22 -116 -25 -13 -46
-24 -48 -25 -2 -1 1 -11 7 -22 9 -17 7 -21 -12 -26 -12 -3 -34 -6 -48 -6 -15
0 -32 -7 -39 -16 -20 -23 3 -39 85 -59 78 -19 138 -21 180 -5 26 10 27 12 11
29 -9 9 -16 27 -16 38 0 12 -8 24 -17 27 -11 5 -14 10 -6 14 6 4 15 27 21 52
5 25 12 52 16 60 15 36 -118 124 -138 92z m13 -258 c2 -2 -2 -10 -9 -19 -16
-19 -64 -19 -80 0 -10 12 -8 16 11 24 21 8 66 5 78 -5z"/>
<path d="M3276 2764 c-30 -29 -17 -84 20 -84 22 0 24 4 24 50 0 54 -14 65 -44
34z"/>
<path d="M3278 2563 c-4 -15 -15 -23 -39 -26 -28 -3 -25 -4 14 -5 49 -2 51 0
38 32 -7 19 -8 19 -13 -1z"/>
<path d="M3086 2553 c-11 -11 -6 -23 9 -23 8 0 15 4 15 9 0 13 -16 22 -24 14z"/>
<path d="M3150 2550 c0 -5 5 -10 11 -10 5 0 7 5 4 10 -3 6 -8 10 -11 10 -2 0
-4 -4 -4 -10z"/>
<path d="M1565 1798 c-21 -11 -54 -48 -55 -60 0 -12 58 -10 65 2 12 20 75 42
122 42 62 0 31 13 -52 21 -36 4 -68 2 -80 -5z"/>
<path d="M1420 1657 c-14 -22 -14 -94 0 -112 4 -5 10 -22 14 -37 5 -22 3 -26
-9 -22 -22 9 -30 -23 -10 -42 23 -23 85 -54 85 -42 0 5 5 6 11 3 6 -4 13 2 16
14 8 33 40 36 81 7 36 -26 55 -26 46 -2 -3 9 3 17 15 21 24 7 28 30 6 39 -8 3
-15 14 -15 25 0 21 -50 44 -74 35 -8 -3 -17 -1 -21 5 -3 6 -13 11 -21 11 -14
0 -81 67 -99 101 -10 18 -11 17 -25 -4z"/>
<path d="M1810 1590 c-6 -11 -8 -25 -5 -30 3 -5 -1 -26 -10 -46 -18 -43 -19
-54 -5 -54 20 0 50 65 50 108 0 45 -13 54 -30 22z"/>
<path d="M1790 1430 c-11 -21 2 -60 20 -60 13 0 50 61 44 72 -10 16 -53 8 -64
-12z"/>
<path d="M1504 1375 c-7 -18 -30 -20 -37 -2 -3 6 -6 2 -6 -10 -1 -12 10 -35
24 -51 14 -17 25 -34 25 -39 0 -7 -30 -27 -57 -38 -1 -1 2 -17 7 -36 11 -41
64 -95 101 -104 22 -5 30 0 54 35 16 23 41 48 57 56 15 8 28 20 29 27 0 6 4
34 8 60 10 59 -1 66 -65 49 -60 -16 -127 13 -76 33 14 5 11 9 -17 21 -41 17
-40 17 -47 -1z"/>
<path d="M2325 1370 c-4 -6 5 -10 20 -10 15 0 24 4 20 10 -3 6 -12 10 -20 10
-8 0 -17 -4 -20 -10z"/>
<path d="M1303 1108 c-14 -18 -31 -74 -39 -133 -4 -27 -10 -60 -15 -71 -28
-76 -57 -395 -39 -424 6 -9 13 -9 29 -1 12 7 25 9 30 6 11 -6 14 3 35 98 9 37
24 79 33 94 19 29 21 39 28 122 2 30 8 58 14 64 6 6 4 18 -6 33 -10 16 -12 28
-6 37 15 19 0 108 -26 150 -26 42 -25 41 -38 25z"/>
<path d="M1427 1073 c-12 -11 -8 -23 7 -23 7 0 19 7 26 15 10 12 9 15 -7 15
-11 0 -23 -3 -26 -7z"/>
<path d="M1440 910 c19 -13 30 -13 30 0 0 6 -10 10 -22 10 -19 0 -20 -2 -8
-10z"/>
<path d="M1493 798 c-13 -6 -23 -19 -23 -30 0 -25 46 -24 60 1 21 40 8 51 -37
29z"/>
<path d="M1882 774 c-28 -19 -28 -41 0 -50 24 -7 51 19 46 45 -4 21 -21 23
-46 5z"/>
<path d="M1910 616 c-13 -25 -8 -56 9 -56 5 0 11 9 14 20 3 11 1 20 -5 20 -5
0 -6 9 -3 20 9 27 1 25 -15 -4z"/>
<path d="M1433 605 c-17 -14 -17 -14 0 -15 10 0 20 -7 23 -15 8 -19 54 -20 54
-1 0 30 -51 50 -77 31z"/>
<path d="M1340 575 c0 -10 7 -15 18 -13 21 4 19 22 -2 26 -10 2 -16 -3 -16
-13z"/>
<path d="M1619 506 c7 -8 27 -18 44 -22 33 -7 103 -47 108 -62 2 -5 16 -12 30
-15 23 -6 28 -2 45 36 l20 43 -31 10 c-16 5 -48 6 -70 3 -22 -4 -47 -3 -55 1
-8 4 -35 10 -59 14 -38 6 -42 5 -32 -8z"/>
<path d="M1904 476 c-8 -21 -1 -49 14 -54 8 -2 12 8 12 32 0 36 -16 49 -26 22z"/>
<path d="M1390 365 c7 -9 15 -13 17 -11 7 7 -7 26 -19 26 -6 0 -6 -6 2 -15z"/>
<path d="M1242 332 c-13 -2 -21 -9 -19 -15 5 -17 21 -19 41 -4 22 16 11 25
-22 19z"/>
<path d="M1851 314 c0 -11 3 -14 6 -6 3 7 2 16 -1 19 -3 4 -6 -2 -5 -13z"/>
<path d="M1910 320 c0 -5 5 -10 10 -10 6 0 10 5 10 10 0 6 -4 10 -10 10 -5 0
-10 -4 -10 -10z"/>
<path d="M1847 284 c-8 -8 1 -24 14 -24 5 0 9 7 9 15 0 15 -12 20 -23 9z"/>
<path d="M1516 199 c-14 -21 -14 -24 1 -41 21 -24 27 -23 43 7 10 18 19 24 33
19 14 -5 18 -2 15 13 -5 29 -72 31 -92 2z"/>
</g>
</svg>
